<svg version="1.1" id="Layer_1" xmlns="http://www.w3.org/2000/svg" xmlns:xlink="http://www.w3.org/1999/xlink" x="0px" y="0px"
	 width="100%" viewBox="0 0 736 624" enable-background="new 0 0 736 624" xml:space="preserve">
<path fill="#000000" opacity="1.000000" stroke="none" 
	d="
M672.385376,548.365234 
	C664.014648,556.552490 654.529785,560.452759 642.931885,560.434204 
	C547.937134,560.282654 452.941956,560.387573 357.946899,560.399536 
	C340.725922,560.401672 328.809937,552.299805 322.786163,536.314148 
	C321.898987,533.959778 320.177521,533.557068 318.312653,532.921692 
	C304.328217,528.156921 289.782013,526.427002 275.176636,525.397400 
	C239.330002,522.870239 203.652405,525.920532 167.967072,528.948608 
	C142.269409,531.129272 116.725220,534.667297 91.060989,537.109253 
	C89.404739,537.266846 87.732780,537.294495 86.067322,537.314270 
	C77.503914,537.415894 73.073601,533.284912 72.987083,524.603333 
	C72.847595,510.605682 72.974983,496.605499 72.971413,482.606415 
	C72.940765,362.447205 72.905090,242.287964 72.873894,122.128746 
	C72.870712,109.873070 74.427223,108.041321 86.613861,105.574562 
	C96.226364,103.628853 105.808907,101.531097 115.439011,99.678978 
	C118.012474,99.184036 118.678482,97.770538 118.667976,95.513016 
	C118.650909,91.846718 118.659058,88.179970 118.697205,84.513832 
	C118.774437,77.090561 121.572990,73.877625 129.012283,73.178177 
	C138.789291,72.258919 148.575668,71.343109 158.378998,70.816887 
	C197.643524,68.709213 236.575211,71.740913 274.970825,80.035400 
	C300.778870,85.610641 325.714050,93.947517 348.218323,108.345436 
	C353.258636,111.570168 358.291779,114.762840 362.380646,119.836700 
	C367.993866,115.193954 373.177368,110.502670 379.159637,106.890808 
	C398.034302,95.494972 418.788544,88.769424 439.803467,82.843307 
	C471.886017,73.796196 504.794495,70.543129 537.997131,70.131874 
	C557.153748,69.894615 576.300598,70.821175 595.353821,72.989586 
	C604.759277,74.059990 607.337219,77.133369 607.338379,86.691719 
	C607.348083,165.520996 607.346008,244.350281 607.339294,323.179565 
	C607.338684,330.464203 604.598877,334.013763 598.808838,334.343842 
	C592.681702,334.693085 589.157837,331.426483 588.156799,324.318298 
	C587.902649,322.513123 587.901672,320.662598 587.901001,318.832855 
	C587.873230,245.170425 587.811096,171.507904 587.950439,97.845772 
	C587.959717,92.929230 586.714722,91.422432 581.661499,91.029533 
	C561.373108,89.452065 541.020264,88.172470 520.762207,89.534584 
	C478.864197,92.351746 437.757416,99.198883 399.656769,118.322495 
	C393.533295,121.396004 387.805664,125.100929 382.242859,129.080627 
	C376.266205,133.356400 373.292389,138.986755 373.296692,146.497360 
	C373.329651,204.141968 373.118103,261.786926 373.266937,319.431091 
	C373.295776,330.603180 371.373901,341.687164 372.283722,352.863739 
	C372.450836,354.916504 371.685547,357.474091 375.080414,357.659027 
	C377.857269,357.810272 380.127747,357.822937 381.109863,354.170319 
	C382.317261,349.679840 385.734802,347.587494 390.559875,347.632233 
	C402.724884,347.745087 414.892944,347.789673 427.056854,347.633453 
	C431.799530,347.572540 434.812592,349.467133 435.755066,354.048065 
	C436.344269,356.911804 437.772400,358.052490 440.570557,357.708435 
	C440.734619,357.688263 440.903687,357.712646 441.070160,357.707886 
	C459.705475,357.174011 453.956146,360.938843 464.037323,345.143982 
	C465.560364,342.757812 467.119659,340.366119 468.346375,337.824554 
	C472.894257,328.402069 480.538086,323.989960 490.769684,323.938751 
	C512.267334,323.831085 533.766479,323.743805 555.263367,323.887909 
	C563.856812,323.945526 570.670471,327.705597 575.056458,335.331207 
	C578.461731,341.251831 582.046387,347.083313 585.139526,353.163879 
	C586.884705,356.594757 589.011841,357.891327 592.915100,357.845490 
	C610.911743,357.634033 628.913269,357.618317 646.910889,357.774933 
	C663.497620,357.919250 677.223755,368.418762 681.533630,383.739807 
	C682.549194,387.349945 682.487854,391.010773 682.487000,394.653900 
	C682.476746,437.317902 682.332275,479.981934 682.379150,522.645813 
	C682.390015,532.489441 679.228638,540.899109 672.385376,548.365234 
M267.035065,97.626228 
	C247.829361,93.279205 228.331848,91.233704 208.712311,89.963730 
	C186.373825,88.517746 164.108871,89.522972 141.846252,91.315720 
	C139.362030,91.515762 138.258835,92.705902 138.293716,95.138870 
	C138.319992,96.971428 138.262253,98.805016 138.261642,100.638161 
	C138.220108,224.633850 138.179047,348.629517 138.157837,472.625214 
	C138.157562,474.248383 137.755264,475.958557 139.132675,478.087677 
	C169.603973,473.788239 200.519913,473.405823 231.400253,476.002136 
	C262.426605,478.610718 292.929871,484.101227 321.625031,496.745514 
	C323.075897,493.988922 322.627167,491.784088 322.629272,489.661377 
	C322.661072,457.829071 322.642151,425.996765 322.674835,394.164459 
	C322.677368,391.677368 322.662201,389.122559 323.186646,386.714935 
	C326.288300,372.476532 335.507965,363.857819 349.016602,359.557648 
	C352.204407,358.542847 353.796722,356.912750 355.052734,353.802490 
	C358.140686,346.155731 357.537903,338.270416 356.582001,330.605804 
	C353.834808,308.578674 353.207947,286.451111 352.982239,264.330353 
	C352.575867,224.503525 352.680969,184.670395 352.792389,144.840515 
	C352.808380,139.134537 350.891357,134.814636 346.643250,131.357285 
	C344.061768,129.256317 341.420837,127.204445 338.654938,125.357765 
	C317.088379,110.958870 292.876740,103.338837 267.035065,97.626228 
M651.917725,376.345612 
	C648.020569,375.153961 644.004700,375.501038 640.016602,375.373566 
	C622.202515,374.804230 604.396057,376.673340 586.576721,375.466980 
	C581.489807,375.122589 577.668579,372.867950 575.007263,368.676483 
	C570.545654,361.649567 565.939392,354.690857 561.933472,347.406799 
	C559.439697,342.872314 556.382629,341.213593 551.184509,341.298645 
	C531.208496,341.625610 511.224945,341.518463 491.244263,341.492493 
	C488.516876,341.488922 486.902924,342.874939 485.637238,344.971649 
	C482.109009,350.816467 478.221680,356.485138 475.183624,362.576202 
	C469.970947,373.027191 461.725433,376.378906 450.382141,376.206085 
	C420.903442,375.757050 391.412689,376.057312 361.926910,376.135315 
	C348.412445,376.171082 341.232056,383.370697 341.210144,396.755341 
	C341.140564,439.234924 341.086975,481.714600 341.051605,524.194214 
	C341.041290,536.590881 347.080078,542.657837 359.387848,542.657654 
	C424.023834,542.656677 488.659790,542.638184 553.295776,542.634216 
	C583.448059,542.632385 613.600464,542.693542 643.752625,542.635986 
	C655.267639,542.614014 663.617981,534.828491 663.655579,524.002930 
	C663.806030,480.691223 663.803040,437.378937 663.978027,394.067352 
	C664.012207,385.607513 660.661621,379.667511 651.917725,376.345612 
M118.668938,485.321045 
	C118.646233,455.340179 118.717094,425.358917 118.577957,395.378571 
	C118.389297,354.726990 118.973236,314.076935 118.182976,273.421204 
	C117.700996,248.625488 118.482414,223.806503 118.597260,198.997513 
	C118.685913,179.847916 118.622429,160.697601 118.622375,141.547607 
	C118.622360,135.225098 118.496758,128.899994 118.642830,122.581024 
	C118.735512,118.571953 117.940315,116.643883 113.228241,118.066994 
	C107.827705,119.698021 102.221390,120.699745 96.657837,121.720703 
	C92.915298,122.407494 92.031685,124.495964 92.034737,128.042984 
	C92.144577,255.682892 92.169937,383.322876 92.233749,510.962830 
	C92.234726,512.908264 91.746307,514.959961 93.283867,517.382874 
	C106.209564,516.029541 119.397087,514.649658 132.584412,513.268005 
	C168.197800,509.536682 203.833099,505.932068 239.653976,505.115387 
	C261.264038,504.622681 282.862183,505.333038 304.191925,510.501373 
	C303.326599,508.990570 301.812317,509.103577 300.641571,508.706390 
	C276.217346,500.420349 251.018112,495.948334 225.350189,494.423370 
	C194.201157,492.572815 163.115936,493.782043 132.168945,497.980896 
	C123.723793,499.126678 118.959328,494.944733 118.668938,485.321045 
z"/>
<path fill="#000000" opacity="1.000000" stroke="none" 
	d="
M235.582611,343.445068 
	C218.798004,343.225891 202.484756,342.319550 186.165894,343.757782 
	C182.575653,344.074249 178.860596,343.354095 175.239685,342.848694 
	C170.536057,342.192169 167.400940,338.785675 167.312622,334.604828 
	C167.218796,330.163239 170.188965,326.049377 174.609238,325.033936 
	C177.514648,324.366486 180.523285,323.988220 183.504044,323.833252 
	C225.656967,321.641327 267.300568,324.832642 308.182770,335.845795 
	C311.386993,336.708954 314.725159,337.316498 317.464844,339.374634 
	C320.636322,341.757141 320.552948,344.303986 317.318787,346.541809 
	C312.590759,349.813293 312.590790,349.813324 313.396667,355.169769 
	C311.450012,356.964661 309.276672,355.873688 307.307953,355.368866 
	C291.987061,351.439819 276.588715,347.877838 260.876648,345.927094 
	C252.626968,344.902863 244.327698,344.278198 235.582611,343.445068 
z"/>
<path fill="#000000" opacity="1.000000" stroke="none" 
	d="
M216.997040,287.058624 
	C207.004730,287.126190 197.510468,287.132507 188.019424,287.310486 
	C183.314850,287.398743 178.708130,286.952850 174.173050,285.740997 
	C171.421738,285.005829 169.890213,283.358948 170.116516,280.328064 
	C170.584961,274.054413 176.365829,268.108185 182.868317,268.003296 
	C196.856308,267.777679 210.856644,267.593689 224.839432,267.923126 
	C253.237473,268.592224 281.129517,273.053711 308.635590,280.028107 
	C310.889648,280.599640 313.137878,281.282074 315.287292,282.161102 
	C320.738373,284.390320 322.971588,288.883636 321.152649,293.643890 
	C318.916321,299.496490 314.218536,302.067719 308.558868,300.390198 
	C278.841370,291.582306 248.399155,287.758514 216.997040,287.058624 
z"/>
<path fill="#000000" opacity="1.000000" stroke="none" 
	d="
M173.620819,159.830017 
	C173.839920,156.311295 176.265244,156.047577 178.620987,155.764130 
	C190.578995,154.325394 202.589447,154.792908 214.567139,155.122162 
	C237.887817,155.763245 261.086670,157.849228 283.951355,162.700989 
	C292.898865,164.599594 301.767578,166.877060 310.646210,169.086258 
	C312.403900,169.523621 314.104126,170.319061 315.725464,171.154022 
	C320.977753,173.858780 322.959534,178.309921 321.145142,183.065735 
	C319.245117,188.046005 314.437134,190.538315 308.872894,188.849243 
	C302.172882,186.815414 295.459686,184.869354 288.601929,183.479935 
	C264.421387,178.580811 240.140671,174.590729 215.335205,174.876770 
	C206.358444,174.980286 197.375549,174.557846 188.395538,174.371307 
	C178.526566,174.166306 176.641891,172.602280 174.619339,163.043030 
	C174.413895,162.072021 174.003922,161.144287 173.620819,159.830017 
z"/>
<path fill="#000000" opacity="1.000000" stroke="none" 
	d="
M228.911041,231.091263 
	C216.944733,230.779968 205.466064,230.490479 193.987640,230.190674 
	C186.463425,229.994171 177.953598,222.566345 177.111618,215.229156 
	C176.738037,211.973572 179.549927,212.161133 181.582031,211.941254 
	C193.858749,210.613083 206.182236,210.930359 218.493073,211.122864 
	C243.863525,211.519623 268.782928,215.535629 293.512848,220.862564 
	C300.819458,222.436447 308.124420,224.180664 315.052399,227.077530 
	C321.094513,229.603958 323.039246,233.595993 321.083130,238.810959 
	C318.966034,244.455185 314.110321,246.784531 308.301147,244.939331 
	C282.621948,236.782700 256.266785,232.482834 228.911041,231.091263 
z"/>
<path fill="#000000" opacity="1.000000" stroke="none" 
	d="
M202.066986,399.252441 
	C193.933517,399.596039 186.292496,400.036133 178.645157,400.245514 
	C172.367996,400.417419 167.833984,396.548126 167.654617,391.184601 
	C167.473160,385.758698 171.632782,381.085815 177.479294,380.660736 
	C200.420761,378.992584 223.344498,379.478546 246.264587,381.311127 
	C264.040649,382.732391 281.542389,385.754456 298.915131,389.663513 
	C305.259155,391.090942 305.326447,391.288361 304.281677,397.582581 
	C303.849731,400.184967 303.965576,402.887238 303.935333,405.545288 
	C303.885803,409.899353 301.653198,410.301514 297.986145,409.371948 
	C285.737183,406.266968 273.303802,404.053406 260.789612,402.323181 
	C241.468170,399.651733 222.026260,399.165619 202.066986,399.252441 
z"/>
<path fill="#000000" opacity="1.000000" stroke="none" 
	d="
M527.151428,528.223511 
	C495.732605,520.031067 475.452271,500.793396 468.961212,469.257690 
	C461.479004,432.906738 485.423767,397.256287 522.320679,387.709808 
	C564.530518,376.788666 606.592346,405.360107 612.473877,448.948334 
	C617.534302,486.451477 590.406738,522.537781 552.886902,528.432129 
	C544.396545,529.765991 536.005249,529.717224 527.151428,528.223511 
M550.328979,512.851257 
	C559.123108,511.086670 567.069763,507.512878 574.254089,502.092987 
	C592.678162,488.193909 601.494385,465.059265 596.117310,444.357239 
	C590.244446,421.746887 571.274597,404.117950 548.428772,401.575378 
	C525.189148,398.988922 505.633545,407.219177 492.779816,426.815582 
	C479.470001,447.107361 479.865356,468.672913 494.083099,488.559998 
	C507.464294,507.277008 526.050049,516.142517 550.328979,512.851257 
z"/>
<path fill="#000000" opacity="1.000000" stroke="none" 
	d="
M423.100647,408.815826 
	C409.909485,409.831329 397.094330,409.361053 384.287598,409.289490 
	C379.782837,409.264343 376.535370,405.690247 376.165039,401.309998 
	C375.800507,396.998260 378.579834,392.937012 383.285461,392.592896 
	C396.234711,391.645782 409.226807,391.610504 422.173523,392.804718 
	C425.132050,393.077606 427.553925,394.865997 428.155487,398.044281 
	C429.009949,402.558899 427.694641,406.270416 423.100647,408.815826 
z"/>
<path fill="#000000" opacity="1.000000" stroke="none" 
	d="
M620.495117,405.918915 
	C619.059326,405.735992 618.065979,405.615509 617.084717,405.430725 
	C612.825684,404.628784 610.765625,401.872162 610.761292,397.714142 
	C610.757019,393.676727 613.035522,390.918549 616.938293,390.404022 
	C624.543274,389.401398 632.236572,389.452972 639.847656,390.342255 
	C643.816162,390.805939 646.544922,394.818390 646.038696,398.755524 
	C645.513245,402.841400 643.215149,405.649170 638.923462,405.827667 
	C632.938660,406.076508 626.937378,405.929413 620.495117,405.918915 
z"/>
<path fill="#000000" opacity="1.000000" stroke="none" 
	d="
M587.321289,454.158539 
	C589.346313,476.491638 571.241577,497.885742 550.061829,502.477325 
	C525.135132,507.881195 498.723236,489.630280 494.689545,464.371796 
	C491.175293,442.365631 503.896271,423.827576 519.648376,415.977081 
	C537.709900,406.975677 559.218445,410.093445 573.554504,424.538605 
	C581.491028,432.535614 586.492126,442.195160 587.321289,454.158539 
z"/>
</svg>